<svg id="Capa_1" data-name="Capa 1" xmlns="http://www.w3.org/2000/svg" viewBox="0 0 2567 383"><defs><style>.cls-1{font-size:280px;}.cls-1,.cls-2{font-family:Modern-Regular, "Modern No. 20";}.cls-2{font-size:120px;}.cls-2,.cls-3{fill:#1b611a;}.cls-4{fill:#7fa66f;}</style></defs><text class="cls-1" transform="translate(410.63 252.72)">RADIMAX</text><text class="cls-2" transform="translate(418.31 352.42)">RADIOIMÁGENES MAXILOFACIALES</text><path class="cls-3" d="M227.83,288.56c-18.51-.74-36.11-7-53.34-14.85-5.57-2.53-5.24-5.76-2.07-9.93s6.12-8.32,9.16-12.49c7.29-10,4.09-19.31-7.93-22.95-2.47-.74-5-1.34-7.53-1.87a66.43,66.43,0,0,1-18.44-6.77c-9.25-5-18.68-3.32-26.5,4a106.71,106.71,0,0,0-18.49,22.09c-2.8,4.55-5.85,4.42-9.09,1.4-8.21-7.63-18.48-10-29-11.74C48,232.65,36.92,222.49,28.49,208.78c-11.32-18.41-15.22-39.22-15.19-60.1a162.23,162.23,0,0,1,18-74c10.64-20.94,25.69-37,47-46.65,18.87-8.55,39.25-13.17,59.65-11,33.58,3.53,66.18,11.73,93,34.14C250.6,67.56,263.35,88,266.34,114c2.44,21.3-2,41.58-8.38,61.56a22,22,0,0,0,2.41,19.48c8.35,13.46,7.87,16.6-1.81,29.56-6.11,8.18-13.53,16-13.65,27.21a139.16,139.16,0,0,0,1,17.56,26.55,26.55,0,0,1-2.8,15C240,290.77,233.6,287.8,227.83,288.56Z"/><path class="cls-4" d="M204.07,20.22c15.22-1.52,28.51-1,41.8-.95,31.24.11,62.48,0,93.72,0,14.79,0,20.85,6.21,24.77,20.79,8.86,32.88-1,61.18-20.05,87.23-10.21,13.95-10.09,29.1-7.14,44.63,3.42,17.95,12.7,33.63,21.21,49.51,4.81,9,4.13,11.72-4.86,16.42a42.45,42.45,0,0,1-18.81,5.26c-11.41.27-16.81,6.18-13.73,17,2.14,7.53.84,12.16-6.73,14.79-3.9,1.36-5.24,5-4.93,8.55.48,5.62-1.93,9-6.15,12.32-8.65,6.85-12.23,15.65-11,27.16a19,19,0,0,1-9.91,18.86,94.83,94.83,0,0,1-40.72,12.05c-4.92.32-6.93-1.29-6.93-6.2,0-6.07-.39-12.14-.63-18.22-.16-4.06,1.63-7.23,4.49-9.91,4.32-4,7-8.78,6.71-14.9-.13-2.83,1.16-4.45,3.74-6a16.5,16.5,0,0,0,8.34-15.23c-.12-7.05.88-14.24-.15-21.14-2-13.75,4.36-23.82,12.42-33.63a86.94,86.94,0,0,0,9.23-13.21c2.4-4.37,3.28-9.29-.53-13.65-8.13-9.3-11.07-18.26-4.89-31,7.09-14.56,6.57-31.32,6.93-47.49.28-12.51-.34-24.62-6.13-36.21S261.2,64.63,252,55.67c-6.59-6.44-12.79-13.36-20.77-18.64C222.92,31.52,214.58,26.09,204.07,20.22Z"/><path class="cls-3" d="M135.73,238.23c5.57,10.13,13.32,14.55,23.57,14.5,4.44,0,4.48,2.1,2.92,5.42-2.09,4.45-4.1,9-5.82,13.55-2.12,5.69-.12,10.13,4.94,13.21,18.14,11,38.2,16.46,58.91,19.94,1.38.23,2.84.06,4.21.34,2.32.47,4.83,1.14,5.69,3.59s-1.14,4.05-2.76,5.26c-5.29,3.94-6.73,9.09-6.11,15.45a48,48,0,0,1-1.07,14.69c-1.43,6.68-5.32,9.08-11.68,7.78-5.74-1.17-11.51-2.39-17.1-4.1a141.31,141.31,0,0,1-55.68-31.93c-9.91-9.19-14.26-19.49-8.53-32.71s8.57-27.23,7.21-41.82C134.38,240.83,134.9,240.21,135.73,238.23Z"/><path class="cls-3" d="M125.12,244.22c.18,7.31-2,13.31-4,19.28-1,2.73-2.1,6.58-6.31,3.65-3.41-2.37-8.87-4.11-5.86-10.08a147.28,147.28,0,0,1,8.5-14.5c1.41-2.15,2.22-6.19,5.77-5S124.24,242.55,125.12,244.22Z"/><path class="cls-3" d="M152.21,239.63c-.4.6.58,2.07,1.41,2.82,4,3.6,14.25-.81,14.12-1.44,0-.2-1.44-.13-4.23,0-3.58.18-4.26.58-5.65,0-1.13-.46-1.35-1-2.83-1.41C154.68,239.53,152.64,239,152.21,239.63Z"/><text/></svg>